name D:\school\WTK\thesis\model\3dpredictsim\Results\Batchsim_tmt_linear_v2\Pog_s1_tmt_bCst_d02_k1000_ig24_pas.mot
datacolumns 128
datarows 4
range 0.00000000 0.03243493
endheader
time	pelvis_tilt	pelvis_list	pelvis_rotation	pelvis_tx	pelvis_ty	pelvis_tz	hip_flexion_l	hip_adduction_l	hip_rotation_l	hip_flexion_r	hip_adduction_r	hip_rotation_r	knee_angle_l	knee_angle_r	ankle_angle_l	ankle_angle_r	subtalar_angle_l	subtalar_angle_r	tmt_angle_l	tmt_angle_r	mtp_angle_l	mtp_angle_r	lumbar_extension	lumbar_bending	lumbar_rotation	arm_flex_l	arm_add_l	arm_rot_l	arm_flex_r	arm_add_r	arm_rot_r	elbow_flex_l	elbow_flex_r	pro_sup_l	pro_sup_r	glut_med1_l/activation	glut_med2_l/activation	glut_med3_l/activation	glut_min1_l/activation	glut_min2_l/activation	glut_min3_l/activation	semimem_l/activation	semiten_l/activation	bifemlh_l/activation	bifemsh_l/activation	sar_l/activation	add_long_l/activation	add_brev_l/activation	add_mag1_l/activation	add_mag2_l/activation	add_mag3_l/activation	tfl_l/activation	pect_l/activation	grac_l/activation	glut_max1_l/activation	glut_max2_l/activation	glut_max3_l/activation	iliacus_l/activation	psoas_l/activation	quad_fem_l/activation	gem_l/activation	peri_l/activation	rect_fem_l/activation	vas_med_l/activation	vas_int_l/activation	vas_lat_l/activation	med_gas_l/activation	lat_gas_l/activation	soleus_l/activation	tib_post_l/activation	flex_dig_l/activation	flex_hal_l/activation	tib_ant_l/activation	per_brev_l/activation	per_long_l/activation	per_tert_l/activation	ext_dig_l/activation	ext_hal_l/activation	ercspn_l/activation	intobl_l/activation	extobl_l/activation	glut_med1_r/activation	glut_med2_r/activation	glut_med3_r/activation	glut_min1_r/activation	glut_min2_r/activation	glut_min3_r/activation	semimem_r/activation	semiten_r/activation	bifemlh_r/activation	bifemsh_r/activation	sar_r/activation	add_long_r/activation	add_brev_r/activation	add_mag1_r/activation	add_mag2_r/activation	add_mag3_r/activation	tfl_r/activation	pect_r/activation	grac_r/activation	glut_max1_r/activation	glut_max2_r/activation	glut_max3_r/activation	iliacus_r/activation	psoas_r/activation	quad_fem_r/activation	gem_r/activation	peri_r/activation	rect_fem_r/activation	vas_med_r/activation	vas_int_r/activation	vas_lat_r/activation	med_gas_r/activation	lat_gas_r/activation	soleus_r/activation	tib_post_r/activation	flex_dig_r/activation	flex_hal_r/activation	tib_ant_r/activation	per_brev_r/activation	per_long_r/activation	per_tert_r/activation	ext_dig_r/activation	ext_hal_r/activation	ercspn_r/activation	intobl_r/activation	extobl_r/activation	
          0.00000000	         -2.90921784	          0.98646934	          5.01852063	          0.00000000	          0.87172974	         -0.00237117	        -17.95408414	          1.33892461	          6.45364655	         26.07025749	         -0.23674715	         -2.59435661	         -6.64906956	         -7.26008307	        -10.38937808	          5.43335594	          7.50312889	          2.92847907	          1.04848374	          0.03253703	         28.46935202	         -0.09929335	          0.58515454	         -3.06638079	         -1.66736788	          3.55617035	        -13.48661981	         12.34970247	         -9.40162507	        -13.44978216	         12.43818934	         27.18598927	         17.02800791	         86.51662706	         86.51662706	          0.25566072	          0.08219248	          0.06860228	          0.23750562	          0.14203669	          0.08219290	          0.05000099	          0.05000019	          0.05000017	          0.05000021	          0.08707164	          0.12311790	          0.05466263	          0.05000596	          0.05000306	          0.05000089	          0.20733295	          0.09728161	          0.05000564	          0.05000354	          0.05000215	          0.05000203	          0.32704587	          0.61442128	          0.05784759	          0.05000320	          0.05000103	          0.25832147	          0.10539313	          0.15914877	          0.05001886	          0.17026909	          0.24948602	          0.20563719	          0.19516429	          0.18480242	          0.24700866	          0.05000001	          0.08030843	          0.15533777	          0.05000012	          0.05000003	          0.05000012	          0.05000001	          0.05000010	          0.05000008	          0.13909522	          0.05000071	          0.12194744	          0.05000066	          0.05000094	          0.05000318	          0.05900980	          0.05900980	          0.10497197	          0.05000037	          0.05000324	          0.06715338	          0.11451466	          0.08053910	          0.18485310	          0.16218493	          0.05000061	          0.05009586	          0.05188107	          0.05046620	          0.13595817	          0.17167438	          0.05000042	          0.05000028	          0.14568962	          0.05000122	          0.05003101	          0.05146789	          0.13281087	          0.14566359	          0.10709619	          0.05688897	          0.05000223	          0.05900968	          0.05000009	          0.05900957	          0.05900960	          0.53659250	          0.32032706	          0.18267899	          0.39181017	          0.52698108	          0.34161253	          0.05000007	          0.12736507	          0.12784532	
          0.01081164	         -2.88766022	          1.02908897	          5.16209314	          0.01713845	          0.87028190	         -0.00222353	        -17.69732924	          1.19552348	          6.21858023	         25.55360447	         -0.07192262	         -2.36256559	         -8.91174929	         -7.36712617	        -11.10272524	          4.83472908	          8.66096623	          2.44578928	          0.93708437	          0.05299837	         29.08512350	         -0.08761967	          0.81673055	         -2.86915798	         -1.72281233	          3.28874071	        -13.52201234	         12.64221032	        -10.60219489	        -13.45231544	         12.25044581	         28.04714294	         17.04360105	         86.51662706	         86.51662706	          0.21662607	          0.06964322	          0.05812812	          0.20124297	          0.12035033	          0.06964359	          0.05000139	          0.05000014	          0.05000015	          0.05000012	          0.07377761	          0.18164357	          0.20077503	          0.11175727	          0.05001038	          0.05000126	          0.17567707	          0.09707415	          0.05000120	          0.05000209	          0.05000139	          0.05000164	          0.27711198	          0.52652091	          0.05138538	          0.05901015	          0.05900968	          0.21888052	          0.13510383	          0.13511054	          0.13412362	          0.14427212	          0.21139409	          0.17424016	          0.16536633	          0.15658668	          0.20929509	          0.05000002	          0.06804694	          0.13667177	          0.05000012	          0.05000007	          0.05000014	          0.05941501	          0.06964298	          0.05509212	          0.11785809	          0.06937853	          0.19378539	          0.05000747	          0.05000241	          0.05000085	          0.05000011	          0.05000023	          0.08894472	          0.05000007	          0.05000023	          0.05690130	          0.09703091	          0.24926224	          0.25248885	          0.17038631	          0.05000038	          0.05000131	          0.05000043	          0.05901021	          0.17082552	          0.20499328	          0.05000007	          0.05000012	          0.18819693	          0.06964395	          0.10169651	          0.06964294	          0.25317268	          0.27358607	          0.20616918	          0.05000000	          0.05000000	          0.05000000	          0.05000002	          0.05000021	          0.05000011	          0.62879654	          0.32282508	          0.18023595	          0.59444096	          0.57372933	          0.35091592	          0.05000002	          0.10791876	          0.10832569	
          0.02162328	         -2.85973889	          1.05332832	          5.28162188	          0.03446506	          0.86868555	         -0.00208726	        -17.34078067	          1.04514011	          5.97890735	         24.94983110	          0.06379669	         -2.08288489	        -11.36001158	         -8.09722666	        -11.75355972	          4.12913874	          9.79264616	          1.94649789	          0.78092301	         -0.04044015	         29.16086829	         -0.13496793	          1.06044677	         -2.64060578	         -1.76802991	          2.96767844	        -13.56262924	         12.89902150	        -11.79453453	        -13.46644505	         12.13456621	         28.90154952	         17.04418345	         86.51662706	         86.51662706	          0.20750693	          0.05901000	          0.05000022	          0.17051701	          0.10197508	          0.05901034	          0.05000141	          0.05000028	          0.05000044	          0.05000007	          0.06251334	          0.18341248	          0.37444670	          0.11685770	          0.05901495	          0.09934485	          0.14885446	          0.08225423	          0.05000155	          0.05002232	          0.05005153	          0.05900719	          0.23480208	          0.47025310	          0.05804975	          0.05000116	          0.05000011	          0.18546148	          0.11447602	          0.11448170	          0.11364545	          0.12224441	          0.17911810	          0.14763688	          0.14011794	          0.13267887	          0.17733964	          0.05000142	          0.05765813	          0.14334915	          0.05000026	          0.16104406	          0.05000140	          0.05971287	          0.05900979	          0.05900973	          0.27808996	          0.23146855	          0.32636911	          0.05000038	          0.05000040	          0.05000057	          0.07264322	          0.05000032	          0.09200818	          0.05000017	          0.05000184	          0.06964281	          0.08221627	          0.21120457	          0.21393892	          0.18144381	          0.05000046	          0.06964023	          0.05001852	          0.05000056	          0.18269483	          0.19106877	          0.05000123	          0.05000040	          0.15946277	          0.05901079	          0.14263831	          0.05900975	          0.21451789	          0.23181453	          0.17469096	          0.05900977	          0.05900984	          0.05900971	          0.05000043	          0.05900975	          0.05900973	          0.53279084	          0.33717844	          0.17465220	          0.50368076	          0.55553878	          0.29733754	          0.05000002	          0.09144155	          0.09178634	
          0.03243493	         -2.82881431	          1.06232186	          5.37411698	          0.05175267	          0.86695024	         -0.00195078	        -16.87640864	          0.89685907	          5.73652141	         24.24710750	          0.19622624	         -1.78304399	        -13.97911329	         -8.90943783	        -12.23298673	          3.67934214	         10.85376605	          1.40811952	          0.58331697	         -0.01391425	         28.43069743	         -0.16372397	          1.29546921	         -2.38673912	         -1.80303956	          2.63266200	        -13.60892300	         13.13903241	        -12.93133398	        -13.49215884	         12.11313802	         29.72907426	         17.00431959	         86.51662706	         86.51662706	          0.17582451	          0.05000028	          0.05000002	          0.14448329	          0.08640541	          0.05000061	          0.05001799	          0.05000038	          0.05000030	          0.05000033	          0.05900906	          0.19536882	          0.31727555	          0.09901609	          0.05000541	          0.08417708	          0.12612720	          0.06969643	          0.05000075	          0.05000048	          0.05000032	          0.05000030	          0.19895212	          0.41693173	          0.05000004	          0.05000021	          0.05000012	          0.15714491	          0.09699766	          0.09700247	          0.09629390	          0.10357993	          0.15177007	          0.12509544	          0.11872458	          0.11242140	          0.15026330	          0.07990472	          0.08420006	          0.12146242	          0.09700551	          0.21763536	          0.07859963	          0.09171573	          0.05000008	          0.05000006	          0.33433316	          0.36146372	          0.45906072	          0.22936286	          0.19799257	          0.33166958	          0.06249661	          0.08618199	          0.07796038	          0.06964304	          0.05000073	          0.05900974	          0.06966340	          0.17895761	          0.18128161	          0.19232711	          0.05000020	          0.05900811	          0.06972964	          0.24358370	          0.22773249	          0.21581207	          0.05000016	          0.05000013	          0.13511579	          0.05000148	          0.26114987	          0.05000006	          0.18176499	          0.19642076	          0.14801889	          0.05000007	          0.05000014	          0.05000001	          0.05000000	          0.05000013	          0.05000010	          0.68107444	          0.28569752	          0.14798603	          0.69533860	          0.62631442	          0.45489775	          0.05053406	          0.07748010	          0.07777225	
